<?xml version="1.0" encoding="UTF-8" standalone="no"?>
<!-- Created with Inkscape (http://www.inkscape.org/) -->

<svg
   width="200"
   height="140"
   viewBox="-2 -2 78 56"
   version="1.1"
   id="svg1"
   inkscape:version="1.2.2 (b0a8486541, 2022-12-01)"
   sodipodi:docname="NoviForge-3-color.svg"
   inkscape:export-filename="NoviForge-3-color-plain.svg"
   inkscape:export-xdpi="1200"
   inkscape:export-ydpi="1200"
   xmlns:inkscape="http://www.inkscape.org/namespaces/inkscape"
   xmlns:sodipodi="http://sodipodi.sourceforge.net/DTD/sodipodi-0.dtd"
   xmlns="http://www.w3.org/2000/svg"
   xmlns:svg="http://www.w3.org/2000/svg">
  <sodipodi:namedview
     id="namedview1"
     pagecolor="#ffffff"
     bordercolor="#000000"
     borderopacity="0.25"
     inkscape:showpageshadow="2"
     inkscape:pageopacity="0.0"
     inkscape:pagecheckerboard="0"
     inkscape:deskcolor="#d1d1d1"
     inkscape:document-units="mm"
     inkscape:zoom="5.2258843"
     inkscape:cx="85.344408"
     inkscape:cy="106.68051"
     inkscape:window-width="2494"
     inkscape:window-height="1371"
     inkscape:window-x="66"
     inkscape:window-y="32"
     inkscape:window-maximized="1"
     inkscape:current-layer="g5401"
     showgrid="false" />
  <defs
     id="defs1" />
  <g
     inkscape:groupmode="layer"
     id="layer2"
     inkscape:label="Layer 4"
     transform="translate(-0.71083363,-0.70877277)">
    <g
       id="g5401"
       transform="translate(-0.20694907,-0.25222757)">
      <g
         id="g4211"
         transform="matrix(0.97088018,0,0,0.97088018,-15.405118,-30.379343)"
         style="display:inline"
         inkscape:export-filename="NoviForge-3-color-1200dpi-transparant.png"
         inkscape:export-xdpi="1200"
         inkscape:export-ydpi="1200">
        <text
           style="font-style:italic;font-weight:500;font-size:19.0367px;font-family:Z003;letter-spacing:0;word-spacing:0;fill:#8b2124;fill-opacity:1;stroke:#990000;stroke-width:0;stroke-opacity:1"
           id="text4153"
           x="17.768906"
           y="57.626461"
           inkscape:export-filename="../NoviForge-3-color-plain.svg"
           inkscape:export-xdpi="1200"
           inkscape:export-ydpi="1200"><tspan
             x="17.768906"
             id="tspan4151"
             style="fill:#8b2124;fill-opacity:1;stroke:#990000;stroke-width:0;stroke-opacity:1">Novi</tspan></text>
        <text
           style="font-style:italic;font-weight:500;font-size:19.0367px;font-family:Z003;letter-spacing:0;word-spacing:0;fill:#8b2124;fill-opacity:1;stroke:#990000;stroke-width:0;stroke-opacity:1"
           id="text4157"
           x="31.813095"
           y="69.494507"
           inkscape:export-filename="../NoviForge-3-color-plain.svg"
           inkscape:export-xdpi="1200"
           inkscape:export-ydpi="1200"><tspan
             x="31.813095"
             id="tspan4155"
             style="fill:#8b2124;fill-opacity:1;stroke:#990000;stroke-width:0;stroke-opacity:1">Forge</tspan></text>
      </g>
      <g
         id="g4217"
         transform="matrix(0.98810056,0,0,0.98810056,-14.390398,5.677067)"
         style="display:inline">
        <text
           style="font-style:italic;font-weight:500;font-size:18.6685px;font-family:Z003;letter-spacing:0;word-spacing:0;display:inline;fill:#000000;fill-opacity:1;stroke:#990000;stroke-width:0;stroke-opacity:1"
           id="text1"
           x="16.150721"
           y="20.290281"
           inkscape:export-filename="../NoviForge-3-color-plain.svg"
           inkscape:export-xdpi="1200"
           inkscape:export-ydpi="1200"><tspan
             x="16.150721"
             id="tspan1"
             style="fill:#000000;fill-opacity:1;stroke:#990000;stroke-width:0;stroke-opacity:1">Novi</tspan></text>
        <text
           style="font-style:italic;font-weight:500;font-size:18.6685px;font-family:Z003;letter-spacing:0;word-spacing:0;fill:#000000;fill-opacity:1;stroke:#990000;stroke-width:0;stroke-opacity:1"
           id="text4129"
           x="29.92329"
           y="31.928793"
           inkscape:export-filename="../NoviForge-3-color-plain.svg"
           inkscape:export-xdpi="1200"
           inkscape:export-ydpi="1200"><tspan
             x="29.92329"
             id="tspan4127"
             style="fill:#000000;fill-opacity:1;stroke:#990000;stroke-width:0;stroke-opacity:1">Forge</tspan></text>
      </g>
      <g
         id="g4243"
         transform="matrix(1.0033234,0,0,1.0033234,-86.564144,5.7382958)"
         inkscape:export-filename="../../data/nextcloud/NoviForge B.V/Logo/NoviForge-3-color-1200dpi.png"
         inkscape:export-xdpi="2400"
         inkscape:export-ydpi="2400"
         style="display:inline">
        <g
           aria-label="Novi"
           id="text4161"
           style="font-style:italic;font-weight:500;font-size:19.0367px;font-family:Z003;letter-spacing:0;word-spacing:0;display:inline;fill:#ab7c9a;fill-opacity:1;stroke:#990000;stroke-width:0"
           transform="matrix(0.96472962,0,0,0.96472962,3.1313746,0.25897222)">
          <path
             d="m 88.781983,20.23033 c 0.494955,0.03807 0.742432,0.05711 1.047019,0.05711 0.818578,0 1.332569,-0.114221 1.827523,-0.418808 0.932798,-0.571101 1.884633,-1.90367 2.493808,-3.521789 0.304587,-0.799542 0.418807,-1.218349 1.237385,-4.530735 0.475918,2.055964 0.475918,2.075001 0.685321,2.950689 0.533028,2.18922 1.066055,3.826376 1.67523,5.044725 1.161238,2.360551 2.836471,3.521789 5.082801,3.521789 0.97087,0 1.65619,-0.17133 2.51284,-0.666284 l -0.45688,-1.694266 c -0.5711,1.332569 -1.10413,1.84656 -1.94174,1.84656 -1.19931,0 -2.30344,-0.932799 -3.274315,-2.779358 0.323624,-1.637157 0.475915,-2.379588 0.970875,-4.378441 0.81858,-3.312386 1.23738,-4.683028 1.84656,-5.9394505 0.39977,-0.8185781 0.85665,-1.1041286 1.73234,-1.1041286 0.15229,0 0.26651,0 0.51399,0.038073 l 0.70436,-1.2754588 c -0.22845,-0.019037 -0.43785,-0.038073 -0.59014,-0.038073 -0.79954,0 -1.6562,0.5520643 -2.6461,1.7133029 -0.91377,1.066055 -1.25643,2.01789 -2.18922,6.148854 -0.190371,0.894725 -0.399775,1.78945 -0.609178,2.703211 -0.01904,0.09518 -0.114221,0.494954 -0.285551,1.085092 -0.818578,-1.580046 -1.275459,-2.969725 -2.836468,-8.871102 L 95.939782,8.8844567 95.292535,9.4745944 c -0.456881,-0.038073 -0.685322,-0.05711 -1.047019,-0.05711 -1.161239,0 -1.827523,0.2094037 -2.531881,0.7424316 -1.199312,0.951835 -2.036927,2.322477 -2.036927,3.369495 0,0.494955 0.133257,0.970872 0.475918,1.67523 l 1.313532,-0.894725 c -0.475917,-1.027982 -0.609174,-1.427752 -0.609174,-1.922707 0,-0.571101 0.323624,-1.085091 0.856651,-1.370642 0.456881,-0.247477 0.894725,-0.323624 1.78945,-0.323624 0.475917,0 0.780505,0 1.446789,0.03807 -0.875688,3.826376 -1.618119,6.225 -2.246331,7.348165 -0.39977,0.704358 -0.818578,0.913762 -1.827523,0.913762 -0.39977,0 -0.647247,-0.01904 -1.180275,-0.07615 z"
             id="path4187"
             style="fill:#ab7c9a;fill-opacity:1" />
          <path
             d="m 107.81871,12.406246 c -0.76146,0 -1.97981,0.552064 -3.10298,1.389679 -1.21835,0.913762 -2.075,2.893578 -2.075,4.797248 0,1.142202 0.64725,1.884634 1.65619,1.884634 0.53303,0 1.0851,-0.190367 1.94175,-0.647248 0.95183,-0.533028 1.58004,-1.008945 1.9227,-1.446789 0.76147,-1.047019 1.37065,-2.912615 1.37065,-4.226148 0,-1.027981 -0.70436,-1.751376 -1.71331,-1.751376 z m -0.9899,0.894725 c 0.76146,0 1.23738,0.723395 1.23738,1.884633 0,0.818578 -0.26651,1.78945 -0.72339,2.722248 -0.55207,1.085092 -1.23739,1.67523 -1.96078,1.67523 -0.78051,0 -1.27546,-0.704358 -1.27546,-1.78945 0,-2.208257 1.38968,-4.492661 2.72225,-4.492661 z"
             id="path4189"
             style="fill:#ab7c9a;fill-opacity:1" />
          <path
             d="m 110.67419,16.137439 c 0.55207,-1.713303 0.68533,-1.884633 1.38968,-1.922706 1.06606,-0.01904 1.35161,-0.03807 1.82753,-0.152294 -1.12317,1.256422 -1.42776,1.637156 -1.69427,2.075 -0.55206,0.913762 -0.87569,1.998854 -0.87569,2.931652 0,0.875688 0.39977,1.408716 1.02798,1.408716 1.5039,0 3.48372,-1.580046 4.79725,-3.826377 0.76147,-1.275459 1.25642,-2.760321 1.25642,-3.712156 0,-0.456881 -0.13325,-0.704358 -0.49495,-1.027982 -0.45688,0.133257 -0.66628,0.209404 -1.27546,0.513991 0.22844,0.513991 0.30459,0.799541 0.30459,1.332569 0,1.161238 -0.34266,2.36055 -0.98991,3.464679 -0.74243,1.256422 -1.78945,2.170184 -2.49381,2.170184 -0.43784,0 -0.76147,-0.494954 -0.76147,-1.142202 0,-0.875688 0.30459,-1.922707 0.83762,-2.874542 0.38073,-0.685321 0.76147,-1.199312 1.63716,-2.208257 v -0.133257 c 0,-0.03807 0,-0.11422 -0.019,-0.209404 h -0.19037 c -0.2094,0.266514 -0.41881,0.323624 -1.00894,0.323624 -0.24748,0 -0.47592,0 -1.06606,-0.03807 -0.47592,-0.01904 -0.79954,-0.03807 -0.9328,-0.03807 -0.38073,0 -0.55206,0.05711 -0.66628,0.209403 -0.24748,0.304587 -0.55207,1.085092 -0.9328,2.455734 z"
             id="path4191"
             style="fill:#ab7c9a;fill-opacity:1" />
          <path
             d="m 122.40081,8.5037227 c -0.53303,0.4188074 -0.97087,0.761468 -1.31353,0.9899084 0.13326,0.3997707 0.30459,0.7233949 0.72339,1.3325689 0.53303,-0.475917 0.59014,-0.533028 1.23739,-1.0279817 -0.0571,-0.1142202 -0.0952,-0.190367 -0.24748,-0.4378441 -0.11422,-0.2284404 -0.13325,-0.2284404 -0.28555,-0.6091744 z m 0.7234,9.5183493 -0.32363,0.171331 c -1.31353,0.723394 -1.54197,0.818578 -1.77041,0.818578 -0.2094,0 -0.34266,-0.209404 -0.34266,-0.533028 0,-0.323624 0,-0.323624 0.62821,-2.836468 0.70436,-2.893578 0.70436,-2.893578 0.70436,-3.045872 0,-0.11422 -0.0952,-0.190367 -0.22844,-0.190367 -0.32363,0 -1.44679,0.628211 -3.0078,1.67523 l -0.0381,0.533027 c 1.16123,-0.628211 1.21834,-0.647248 1.38967,-0.647248 0.1523,0 0.22844,0.114221 0.22844,0.323624 0,0.266514 -0.0571,0.533028 -0.34266,1.61812 -0.89472,3.312385 -0.89472,3.312385 -0.89472,3.80734 0,0.45688 0.17133,0.761468 0.45688,0.761468 0.32362,0 0.83761,-0.247477 1.84656,-0.894725 0.3617,-0.228441 0.72339,-0.456881 1.08509,-0.704358 0.17133,-0.09518 0.30459,-0.190367 0.53303,-0.323624 z"
             id="path4193"
             style="fill:#ab7c9a;fill-opacity:1" />
        </g>
        <g
           aria-label="Forge"
           id="text4165"
           style="font-style:italic;font-weight:500;font-size:19.0367px;font-family:Z003;letter-spacing:0;word-spacing:0;display:inline;fill:#8897cb;fill-opacity:1;stroke:#990000;stroke-width:0"
           transform="matrix(0.96472962,0,0,0.96472962,3.1313746,0.25897222)">
          <path
             d="m 110.3647,26.520624 1.21835,-4.892431 3.04587,0.07615 c 0.24748,-0.209403 0.79954,-0.628211 1.19931,-0.875688 0.0952,-0.22844 0.11422,-0.266514 0.19037,-0.533027 -0.79954,0.494954 -1.46583,0.666284 -2.53188,0.666284 l -2.55092,-0.01904 c -2.05596,0 -3.25528,0.285551 -4.30229,1.047019 -1.06606,0.780505 -1.71331,2.113074 -1.71331,3.502753 0,0.475917 0.0571,0.799541 0.24748,1.465825 l 1.59908,-0.723394 c -0.30459,-0.894725 -0.38073,-1.313532 -0.38073,-1.884633 0,-1.713303 1.10413,-2.779358 2.89358,-2.779358 0.22844,0 0.55206,0.01904 0.91376,0.05711 l -1.21835,4.892431 -0.68532,0.875689 h 0.45688 l -0.49496,2.036926 c -0.76146,3.045872 -1.21834,3.5789 -3.02683,3.5789 -0.30459,0 -0.62821,-0.01904 -1.27546,-0.03807 l -0.74243,1.237386 c 0.39977,0.03807 0.76147,0.05711 0.95183,0.05711 1.14221,0 1.96078,-0.342661 3.21721,-1.389679 1.38968,-1.123165 1.90367,-1.941743 2.34151,-3.75023 l 0.45688,-1.827523 c 1.10413,-0.05711 1.96078,-0.11422 2.03693,-0.133257 0.53303,-0.07615 0.70436,-0.17133 1.16124,-0.647248 z"
             id="path4196"
             style="fill:#8897cb;fill-opacity:1" />
          <path
             d="m 119.10253,24.274294 c -0.76147,0 -1.97982,0.552064 -3.10298,1.389679 -1.21835,0.913761 -2.075,2.893578 -2.075,4.797248 0,1.142202 0.64725,1.884633 1.65619,1.884633 0.53303,0 1.08509,-0.190367 1.94174,-0.647247 0.95184,-0.533028 1.58005,-1.008946 1.92271,-1.44679 0.76147,-1.047018 1.37064,-2.912615 1.37064,-4.226147 0,-1.027982 -0.70436,-1.751376 -1.7133,-1.751376 z m -0.98991,0.894725 c 0.76147,0 1.23739,0.723394 1.23739,1.884633 0,0.818578 -0.26652,1.78945 -0.7234,2.722248 -0.55206,1.085092 -1.23738,1.675229 -1.96078,1.675229 -0.7805,0 -1.27546,-0.704357 -1.27546,-1.789449 0,-2.208257 1.38968,-4.492661 2.72225,-4.492661 z"
             id="path4198"
             style="fill:#8897cb;fill-opacity:1" />
          <path
             d="m 121.59633,32.288744 1.46582,-0.552064 1.42776,-5.425459 c 0.64725,-0.494955 1.08509,-0.666285 1.59908,-0.666285 0.41881,0 0.66628,0.152294 1.00895,0.590138 l 0.5711,-1.808487 c -0.34266,-0.11422 -0.51399,-0.152293 -0.70436,-0.152293 -0.3617,0 -0.74243,0.17133 -1.25642,0.533027 -0.24748,0.190367 -0.49496,0.380734 -0.76147,0.552065 -0.11422,0.09518 -0.24748,0.190367 -0.3617,0.266513 l 0.22844,-1.142201 c 0,-0.114221 -0.11422,-0.209404 -0.24748,-0.209404 -0.24747,0 -1.9227,0.818578 -3.08394,1.503899 l -0.0571,0.513991 c 1.10413,-0.533028 1.12316,-0.552064 1.37064,-0.552064 0.24748,0 0.3617,0.133257 0.3617,0.39977 0,0.266514 -0.19037,1.142202 -0.41881,1.979817 z"
             id="path4200"
             style="fill:#8897cb;fill-opacity:1" />
          <path
             d="m 132.84699,27.92934 c 0.0761,-0.418807 0.17133,-0.780505 0.24748,-1.085092 0.0952,-0.361697 0.19036,-0.723394 0.28555,-1.066055 l 0.0952,-0.418807 c 0.34266,-0.09518 0.3617,-0.09518 0.97087,-1.066055 -0.0952,0 -0.34266,0 -2.20825,0.03807 -1.16124,0.01904 -1.5039,0.07615 -2.05597,0.418807 -0.91376,0.552065 -1.56101,1.104129 -1.96078,1.61812 -0.5711,0.761468 -1.25642,3.026835 -1.25642,4.20711 0,0.475918 0.11422,0.818578 0.41881,1.237386 -1.16124,1.008945 -1.5039,1.294495 -2.18922,1.884633 -0.95184,0.837615 -1.38968,1.465826 -1.38968,1.998853 0,0.704358 0.81858,1.104129 2.2844,1.104129 1.75138,0 3.12202,-0.494954 4.39748,-1.599083 0.81858,-0.704358 1.00895,-1.104128 1.40872,-2.988762 z m -2.49381,5.216056 c -0.24747,1.161238 -0.4188,1.580046 -0.76146,1.941743 -0.41881,0.494954 -1.19932,0.723395 -2.32248,0.723395 -1.23739,0 -1.90367,-0.323624 -1.90367,-0.951835 0,-0.780505 0.53303,-1.256423 5.80619,-5.311239 z m -1.44679,-2.493808 c -0.34266,-0.342661 -0.47591,-0.647248 -0.47591,-1.104128 0,-0.437845 0.0952,-0.913762 0.43784,-2.036927 0.34266,-1.142202 0.60917,-1.637156 1.04702,-1.90367 0.34266,-0.228441 0.76147,-0.266514 2.66514,-0.266514 h 0.60917 c -0.79954,0.590138 -0.89472,0.666284 -1.06605,0.951835 -0.1523,0.247477 -0.3617,0.970872 -0.78051,2.569954 -0.32362,0.209404 -0.38073,0.266514 -0.62821,0.437844 -0.45688,0.323624 -0.89472,0.666285 -1.31353,0.989909 z"
             id="path4202"
             style="fill:#8897cb;fill-opacity:1" />
          <path
             d="m 140.13804,29.490349 c -1.52294,1.294496 -2.34151,1.770413 -3.06491,1.770413 -0.49495,0 -0.87569,-0.323623 -1.00894,-0.818578 -0.0761,-0.304587 -0.0952,-0.51399 -0.0952,-1.066055 0.87569,-0.552064 1.40872,-0.932798 2.53188,-1.770413 1.04702,-0.780504 1.42776,-1.408716 1.42776,-2.265367 0,-0.666284 -0.39977,-1.066055 -1.0851,-1.066055 -0.4188,0 -0.70435,0.09518 -1.16123,0.34266 -0.7234,0.418808 -1.37065,0.932799 -1.75138,1.389679 -0.72339,0.875689 -1.37064,2.969726 -1.37064,4.511698 0,1.123165 0.59014,1.827523 1.56101,1.827523 1.12316,0 2.56995,-0.837614 3.9977,-2.30344 z m -4.11193,-0.799541 c 0.32363,-2.055963 1.18028,-3.616973 2.01789,-3.616973 0.30459,0 0.51399,0.304587 0.51399,0.780505 0,0.951835 -0.55206,1.561009 -2.53188,2.836468 z"
             id="path4204"
             style="fill:#8897cb;fill-opacity:1" />
        </g>
      </g>
    </g>
  </g>
</svg>
